<?xml version="1.0" encoding="utf-8"?>
<!-- Generator: Adobe Illustrator 23.0.1, SVG Export Plug-In . SVG Version: 6.00 Build 0)  -->
<svg version="1.1" id="Layer_1" xmlns="http://www.w3.org/2000/svg" xmlns:xlink="http://www.w3.org/1999/xlink" x="0px" y="0px"
	 viewBox="0 0 111 98" enable-background="new 0 0 111 98" xml:space="preserve">
<g>
	<path fill="#409ECC" d="M79.81,0.39l-50.5,0c-0.83,0-1.61,0.45-2.02,1.17L0.54,47.9c-0.42,0.72-0.42,1.61,0,2.33l26.76,46.34
		c0.42,0.72,1.19,1.17,2.02,1.17h53.51c0.83,0,1.61-0.45,2.02-1.17l25.41-44.01c0.9-1.56-0.22-3.5-2.02-3.5H92.7
		c-0.83,0-1.61,0.45-2.02,1.17L74.15,78.87c-0.42,0.72-1.19,1.17-2.02,1.17H38.12c-0.83,0-1.61-0.45-2.02-1.17L19.09,49.41
		c-0.42-0.72-0.42-1.61,0-2.33l17.01-29.45c0.42-0.72,1.19-1.17,2.02-1.17h34.11c0.78,0,1.51-0.39,1.94-1.04l7.59-11.39
		C82.79,2.47,81.68,0.39,79.81,0.39z"/>
	<polygon fill="#409ECC" points="32.63,49.07 44.35,69.36 67.79,69.36 79.51,49.07 67.79,28.77 44.35,28.77 	"/>
	<path fill="#F9F9F9" d="M71.04,36.95l-12.4,0.19c-2.25,0.03-3.33,2.81-1.72,4.41l3.46,3.41l-7.59,7.96l-7.83-7.72
		c-1.33-1.32-3.46-1.28-4.75,0.07l-7.1,7.45c-0.65,0.68-0.63,1.76,0.04,2.42l2.41,2.38c0.67,0.66,1.73,0.64,2.38-0.04l4.76-5
		l7.83,7.72c1.33,1.32,3.46,1.28,4.75-0.07l9.93-10.41l3.46,3.41c1.61,1.59,4.31,0.41,4.28-1.88l-0.19-12.62
		C72.74,37.69,71.97,36.94,71.04,36.95z"/>
</g>
</svg>
